<svg t="1711767873888" class="icon" viewBox="0 0 1024 1024" version="1.1" xmlns="http://www.w3.org/2000/svg" p-id="29390" width="200" height="200"><path d="M0.360043 0m113.697768 0l795.884378 0q113.697768 0 113.697768 113.697768l0 795.884378q0 113.697768-113.697768 113.697768l-795.884378 0q-113.697768 0-113.697768-113.697768l0-795.884378q0-113.697768 113.697768-113.697768Z" fill="#D1C3A8" p-id="29391"></path><path d="M728.02576 687.719901c-1.970761-4.09312-3.789926-8.262038-5.381695-12.582553-7.352456-19.707613 8.716829-36.913875 13.037344-55.257116 5.646989-24.103927-9.929605-51.353492-14.629112-75.419519-10.535993-53.968541 33.237648-61.851586-4.62371-170.811947-16.675673-47.942559-41.689182-76.93549-82.392982-103.91976-47.942559-31.759577-89.214849-41.689182-147.807099-36.989674-99.561346 7.579851-203.519005 106.838003-190.102669 216.328953 3.789926 31.911174-13.871128 59.805026-23.080647 88.494763-15.538695 48.435249 31.797476 79.361042 18.949628 131.889411-13.075243 54.233835-56.469892 97.438987-34.10933 155.614346a16.334579 16.334579 0 0 0 17.282061 12.506754c86.220808 9.929605 174.147082 22.739554 260.974277 22.739554 53.703246 2.577149 108.278175 4.661608 161.791924-1.364373 49.685925-5.60909 90.200229-41.689182 77.276583-98.803361-6.253377-27.628558-35.814797-48.511048-47.184573-72.425478z" fill="#DB5050" p-id="29392"></path><path d="M593.824494 680.935934s2.766646-42.901958 5.988082-49.572227c-1.970761 1.629668-7.579851 4.926903-9.361116 6.670269-12.127762 10.839187-44.190533 14.553314-76.859691 13.719531-32.669159 0.833784-64.69403-2.880343-76.821792-13.719531-1.932862-1.743366-7.579851-5.040601-9.399016-6.670269 3.789926 11.71087 6.025982 49.610126 5.988083 49.572227a191.239646 191.239646 0 0 1-2.652948 42.522965 81.5213 81.5213 0 0 1-71.250602 70.378919c-130.297642 15.690292-219.133499 37.027573-199.956475 75.798512 4.661608 9.512713 344.428439 78.489359 351.060809 85.424923 0 0 339.539435-88.873756 344.238943-98.538066 18.191643-36.875976-87.585181-51.542988-186.009549-61.927384a81.483401 81.483401 0 0 1-72.198082-70.454717 194.044191 194.044191 0 0 1-2.766646-43.205152z" fill="#FED4BF" p-id="29393"></path><path d="M686.336578 476.621044c-13.075243-0.795884-17.81265 16.561975-23.611237 28.04545 25.619897-65.035123-0.871683-131.96521-35.814797-162.246715-28.272845-24.520819-70.568415-36.345387-113.205077-36.800178-42.636663 0.454791-84.894334 12.279359-113.205078 36.800178-34.905215 30.319405-61.396795 97.211592-35.814797 162.246715-5.760687-11.369777-10.535993-28.841334-23.611237-28.04545-41.310189 2.53925-32.176468 51.694585-22.360561 70.151523s28.576039 32.782857 49.685925 33.65454a12.544654 12.544654 0 0 1 7.314556 1.667567 9.70221 9.70221 0 0 1 2.690847 4.737407c15.766091 46.653984 41.689182 98.538066 132.647397 103.616566a5.950183 5.950183 0 0 1 5.0785 0c90.958215-5.002702 116.843406-56.848884 132.647396-103.616566a9.778008 9.778008 0 0 1 2.728747-4.737407 12.430956 12.430956 0 0 1 7.276657-1.667567c21.109886-0.871683 39.945816-15.387098 49.723824-33.65454s19.101225-67.612273-22.171065-70.151523z" fill="#FEE1D2" p-id="29394"></path><path d="M460.229616 377.893482s22.739554 54.802324 80.611718 51.580888 75.002628 34.10933 83.378363 61.055701a54.953921 54.953921 0 0 0 39.26363 37.179171c8.262038 2.04656-49.572227 70.189422-28.917133 121.808209s81.028609-81.938192 81.02861-81.938192l2.956142-90.048632-8.944225-72.614975v-41.310189c-70.265221-87.168289-138.787076-85.728117-248.505422-63.140161a79.777934 79.777934 0 0 0-30.925793 14.78071c-3.789926 2.463452-19.897109 6.253377-55.446612 37.899256-26.946371 24.103927-45.782301 36.15589-35.397905 70.795811l-10.990784 55.219216s18.002147-11.369777 34.412525 20.200303c0 0 45.895999-34.943114 43.697842-69.924127s42.560865-62.230578 53.779044-51.542989z" fill="#DB5050" p-id="29395"></path><path d="M820.651542 807.254154l-30.698398-3.789925a57.152078 57.152078 0 0 0-31.835375 5.343795l-247.330545 140.719938-247.292646-140.682039A57.152078 57.152078 0 0 0 231.545505 803.464229l-30.736297 3.789925a60.63881 60.63881 0 0 0-45.8202 32.593361 68.938747 68.938747 0 0 0-7.845146 31.835375v152.165513h727.286724V871.68289a68.483956 68.483956 0 0 0-7.845146-31.986972 60.63881 60.63881 0 0 0-45.933898-32.441764z" fill="#88D1BE" p-id="29396"></path><path d="M649.991191 789.062512a16.713572 16.713572 0 0 0-8.375735-1.326474 139.961953 139.961953 0 0 1-37.899256 43.356749 144.244569 144.244569 0 0 1-79.095748 30.622598 23.649136 23.649136 0 0 1-12.582553-0.416891 7.579851 7.579851 0 0 0-8.186239 1.364373v0.416892c-53.058959-3.06984-95.089234-25.619897-124.120064-70.227322a8.072542 8.072542 0 0 0-4.889004-4.282616l-5.002702 0.757985c-0.568489 2.273955 0.985381 3.789926 2.04656 5.457493 29.258226 44.645324 70.492616 70.378919 124.30956 76.063807 4.168918 0.416892 9.436915-0.833784 5.495392 6.329176-0.568489 1.02328 0.227396 3.107739 0.985381 4.396314 1.288575 2.311855 0.606388 3.335135-1.402272 4.813205-7.352456 5.457493-9.436915 11.369777-6.859766 18.494837s8.792627 10.68759 17.85055 10.232799l1.364373 0.341094c14.78071-7.769347 16.372479-18.949628 4.131019-29.447722-1.288575-1.099078-2.804545-1.819164-1.440172-3.789926 2.728746-3.789926 0.378993-7.200859-0.416892-10.725489 58.705948-5.646989 104.260853-31.645879 134.087568-82.430882z" fill="#FFFFFF" p-id="29397"></path></svg>