<svg t="1712566923930" class="icon" viewBox="0 0 1024 1024" version="1.1" xmlns="http://www.w3.org/2000/svg" p-id="11597" width="200" height="200"><path d="M106.666667 106.666667m128 0l554.666666 0q128 0 128 128l0 640q0 128-128 128l-554.666666 0q-128 0-128-128l0-640q0-128 128-128Z" fill="#4787F0" p-id="11598"></path><path d="M362.666667 21.333333h298.666666a128 128 0 0 1 128 128v42.666667a42.666667 42.666667 0 0 1-42.666666 42.666667h-469.333334a42.666667 42.666667 0 0 1-42.666666-42.666667v-42.666667a128 128 0 0 1 128-128z" fill="#85DBBE" p-id="11599"></path><path d="M478.976 741.248v-83.946667h-94.144a35.52 35.52 0 0 1 0-71.018666h94.144v-46.250667h-94.144a35.52 35.52 0 0 1 0-71.018667h33.237333l-47.168-45.162666a34.133333 34.133333 0 0 1-3.093333-49.706667 38.4 38.4 0 0 1 52.181333 3.264l94.485334 90.389333 94.485333-90.389333a38.4 38.4 0 0 1 52.181333-3.264 34.133333 34.133333 0 0 1-3.093333 49.685333l-47.168 45.184h33.237333a35.52 35.52 0 0 1 0 71.018667h-94.144v46.229333h94.144a35.52 35.52 0 0 1 0 71.018667h-94.144v83.968a35.498667 35.498667 0 1 1-70.997333 0z" fill="#FFFFFF" p-id="11600"></path></svg>